<svg xmlns="http://www.w3.org/2000/svg" width="468" height="107" viewBox="0 0 468 107">
  <g id="Group_6" data-name="Group 6" transform="translate(-367.171 -1002.793)">
    <g id="Group_4" data-name="Group 4" transform="translate(398.395 1013.845)">
      <text id="API" transform="translate(280.776 75.948)" fill="#202020" font-size="80" font-family="Roboto-Bold, Roboto" font-weight="700"><tspan x="0" y="0">API</tspan></text>
      <g id="Group_2" data-name="Group 2" transform="translate(0 19.158)">
        <path id="Path_1" data-name="Path 1" d="M51.176-155.405H28.628v23.291H16.885v-57H158.239v9.512H28.628v14.719H51.176ZM72-132.114H60.649v-42.355H72Zm25.17-13.818,7.868-28.537h11.822l-14.288,42.355H91.77L77.482-174.469H89.3Zm43.647,14.6q-9.317,0-15.169-5.715T119.8-152.274v-1.1a25.586,25.586,0,0,1,2.466-11.411,18.1,18.1,0,0,1,6.987-7.751,19.612,19.612,0,0,1,10.315-2.721q8.69,0,13.681,5.48t4.991,15.541v4.619H131.267a10.509,10.509,0,0,0,3.308,6.655,10,10,0,0,0,6.987,2.505,12.211,12.211,0,0,0,10.217-4.737l5.559,6.224a16.983,16.983,0,0,1-6.89,5.617A22.6,22.6,0,0,1,140.819-131.331Zm-1.292-34.8a7.069,7.069,0,0,0-5.461,2.281,11.809,11.809,0,0,0-2.681,6.527h15.736v-.9a8.422,8.422,0,0,0-2.036-5.839A7.293,7.293,0,0,0,139.527-166.131Z" transform="translate(-16.885 189.109)" fill="#202020"/>
        <path id="Path_2" data-name="Path 2" d="M28.628-152.2v20.082H16.885v-57H39.119a25.724,25.724,0,0,1,11.293,2.349,17.308,17.308,0,0,1,7.5,6.674,18.61,18.61,0,0,1,2.623,9.845q0,8.377-5.735,13.212T38.924-152.2Zm0-9.512H39.119q4.658,0,7.1-2.192a7.973,7.973,0,0,0,2.447-6.263,9.4,9.4,0,0,0-2.466-6.772,9.212,9.212,0,0,0-6.811-2.662H28.628ZM68.6-132.114v-57H86.133a26.632,26.632,0,0,1,13.446,3.386,23.612,23.612,0,0,1,9.258,9.63,29.7,29.7,0,0,1,3.327,14.19v2.623a29.786,29.786,0,0,1-3.269,14.131,23.409,23.409,0,0,1-9.219,9.591,26.833,26.833,0,0,1-13.427,3.445ZM80.339-179.6v38.049h5.676q6.89,0,10.53-4.5t3.719-12.879v-3.014q0-8.69-3.6-13.172T86.133-179.6Z" transform="translate(131.7 189.109)" fill="#178ee9"/>
      </g>
      <text id="::" transform="translate(246.776 62.948)" fill="#202020" font-size="54" font-family="Roboto-Bold, Roboto" font-weight="700"><tspan x="0" y="0">::</tspan></text>
    </g>
    <text id="_" data-name="{" transform="translate(367.171 1084.793)" fill="#178ee9" font-size="85" font-family="Montserrat-Regular, Montserrat"><tspan x="0" y="0">{</tspan></text>
    <text id="_2" data-name="}" transform="translate(806.171 1084.793)" fill="#178ee9" font-size="85" font-family="Montserrat-Regular, Montserrat"><tspan x="0" y="0">}</tspan></text>
  </g>
</svg>
